<svg width="544" height="544" viewBox="0 0 544 544" fill="none" xmlns="http://www.w3.org/2000/svg">
<g clip-path="url(#clip0_5_53)">
<path d="M78.8459 355.155L128.693 287.811C131.922 283.452 138.766 285.264 139.483 290.659C154.693 404.961 309.744 445.876 378.632 350.033L468.168 229.114L536.424 136.852C538.835 133.601 543.986 135.299 543.986 139.356V264.145C543.986 269.324 542.321 274.374 539.236 278.532L468.153 374.389L450.877 397.696C358.415 530.887 152.196 516.932 77.2675 375.209C73.8813 368.793 74.5126 360.981 78.8315 355.14L78.8459 355.155Z" fill="currentColor"/>
<path d="M463.275 188.961L413.14 256.678C409.912 261.037 403.082 259.225 402.35 253.844C387.012 139.96 232.792 98.9869 163.661 194.097L74.9573 313.735L7.57608 405.651C5.17986 408.932 0 407.22 0 403.163V277.611C0 272.432 1.66444 267.396 4.73505 263.239L74.9573 168.373L85.891 153.613C173.504 12.6241 389.881 24.5075 464.91 169.006C468.239 175.408 467.579 183.177 463.289 188.975L463.275 188.961Z" fill="currentColor" />
</g>
<defs>
<clipPath id="clip0_5_53">
<rect width="544" height="436" fill="white" transform="translate(0 54)"/>
</clipPath>
</defs>
</svg>
