<svg width="1198" height="210" viewBox="0 0 1198 210" fill="none" xmlns="http://www.w3.org/2000/svg">
<g clip-path="url(#clip0_5_57)">
<path d="M1011.61 0H1041.41V167.84H1011.61V0Z" fill="white"/>
<path d="M590.823 158.204C601.251 167.513 616.039 172.438 633.596 172.438L633.605 172.447C667.684 172.447 685.511 150.593 685.511 130.613C685.511 110.634 671.132 96.1855 646.055 90.99L624.79 86.8672C615.629 85.123 609.936 79.4332 609.936 72.0178C609.936 62.8955 619.199 55.7413 631.024 55.7413C651.833 55.7413 656.604 70.4974 657.573 75.0213L657.676 75.5063L683.927 68.3428L683.834 67.9137C682.828 63.1846 679.827 54.0717 671.151 46.0873C661.459 37.1702 647.966 32.6556 631.024 32.6556C603.18 32.6556 580.535 51.5439 580.535 74.7508C580.535 93.6857 594.327 107.882 617.428 112.742L638.088 117.116C649.149 119.28 655.244 124.718 655.244 132.805C655.244 140.892 648.46 149.054 633.298 149.054C614.362 149.054 605.789 137.712 604.093 127.097L604.009 126.584L576.882 133.757L576.947 134.167C578.261 142.637 583.452 151.619 590.823 158.204Z" fill="white"/>
<path d="M27.5278 102.519V32.693H0V102.519C0 119.738 6.22497 135.501 16.5502 147.673C29.3543 162.765 48.4392 172.345 69.77 172.345C93.5051 172.345 114.472 160.48 127.071 142.357L175.138 77.6424C198.137 46.05 250.723 61.6923 251.524 101.651L272.715 73.0812C250.537 23.9438 178.949 18.8696 150.378 64.7704L104.082 127.209C96.4125 137.861 83.888 144.801 69.77 144.801C46.4357 144.801 27.5278 125.866 27.5278 102.519Z" fill="white"/>
<path d="M167.049 103.315L167.059 103.302L167.049 103.312L167.049 103.315Z" fill="white"/>
<path d="M167.049 103.315L145.933 131.789C168.214 180.012 236.419 185.748 266.593 142.357L314.659 77.6424C337.658 46.05 390.244 61.6923 391.046 101.651L412.479 73.0812C390.636 23.6453 318.275 19.1681 289.89 64.7704L243.576 127.209C220.661 159.043 167.788 143.421 167.049 103.315Z" fill="white"/>
<path d="M446.111 158.092C490.44 191.895 558.114 159.594 558.114 102.51C558.114 34.232 465.289 7.29414 429.523 64.761L383.134 127.2C360.238 159.062 307.316 143.392 306.589 103.293L285.454 131.789C307.717 180.021 376.043 185.748 406.217 142.366L454.237 77.5118C476.993 46.3858 530.586 62.4945 530.586 102.519C530.586 156.553 447.164 157.337 446.12 103.358L418.592 140.529V210.009H446.111V158.092Z" fill="white"/>
<path d="M770.993 171.972C731.416 171.972 701.568 142.058 701.568 102.388C701.568 62.7184 731.052 33.1128 770.145 33.1128C806.33 33.1128 825.461 55.2377 831.109 74.6949L804.541 84.1437C801.969 75.7489 793.964 59.6683 770.415 59.6683C751.61 59.6683 731.36 73.0346 731.36 102.388C731.36 131.742 751.908 145.677 770.993 145.677C790.078 145.677 801.978 133.402 806.171 121.435L832.19 130.632C825.657 149.987 805.957 171.972 770.993 171.972Z" fill="white"/>
<path fill-rule="evenodd" clip-rule="evenodd" d="M1135.91 171.972C1117.5 171.972 1100.49 165.433 1088.01 153.568C1074.5 140.724 1067.36 122.844 1067.36 101.857C1067.36 58.8287 1100.51 33.1221 1132.55 33.1221C1152.66 33.1221 1169.34 39.4834 1180.76 51.5066C1192.05 63.3899 1198.01 80.5152 1198.01 101.036C1198.01 104.925 1197.69 108.246 1197.46 109.794H1097.07L1097.12 111.231C1097.98 131.817 1114.65 147.347 1135.92 147.347C1153.31 147.347 1165.44 139.419 1171.11 124.392L1195.97 132.069C1189.31 151.6 1170.21 171.972 1135.93 171.972H1135.91ZM1132.84 56.9259C1111.78 56.9259 1099.16 72.82 1097.96 87.7627L1097.84 89.2551H1168.03L1167.97 87.8187C1167.44 73.5662 1157.93 56.9166 1132.83 56.9166L1132.84 56.9259Z" fill="white"/>
<path fill-rule="evenodd" clip-rule="evenodd" d="M846.056 101.847C846.056 142.805 872.633 171.403 910.673 171.403C928.183 171.403 943.084 162.999 949.569 149.464L952.272 150.052V167.84H980.638V37.2076H951.722V53.3628L948.982 53.8665C945.162 44.4084 932.684 33.3646 910.114 33.3646C872.997 33.3646 846.056 60.8902 846.056 101.847ZM875.82 101.847C875.82 75.7862 891.299 58.2785 914.326 58.2785C936.859 58.2785 951.992 75.4038 951.992 101.847C951.992 128.291 937.362 146.769 914.326 146.769C891.29 146.769 875.82 127.908 875.82 101.847Z" fill="white"/>
</g>
<defs>
<clipPath id="clip0_5_57">
<rect width="1198" height="210" fill="white"/>
</clipPath>
</defs>
</svg>
