<svg width="871" height="132" viewBox="0 0 871 132" fill="none" xmlns="http://www.w3.org/2000/svg">
<path d="M217.75 107.092V13.197H233.915V93.74H287.114V107.092H217.75Z" fill="#F4F4F4"/>
<path d="M326.976 109.201C303.61 109.201 289.502 93.74 289.502 71.2519C289.502 48.9043 303.61 33.1626 327.123 33.1626C350.342 33.1626 364.45 48.7637 364.45 71.1113C364.45 93.5994 350.342 109.201 326.976 109.201ZM304.492 71.2519C304.492 86.1502 311.546 97.8159 327.123 97.8159C342.407 97.8159 349.461 86.1502 349.461 71.2519C349.461 56.2129 342.407 44.6878 327.123 44.6878C311.546 44.6878 304.492 56.2129 304.492 71.2519Z" fill="#F4F4F4"/>
<path d="M410.214 109.201C386.848 109.201 372.74 93.74 372.74 71.2519C372.74 48.9043 386.848 33.1626 410.361 33.1626C433.58 33.1626 447.688 48.7637 447.688 71.1113C447.688 93.5994 433.58 109.201 410.214 109.201ZM387.729 71.2519C387.729 86.1502 394.783 97.8159 410.361 97.8159C425.644 97.8159 432.698 86.1502 432.698 71.2519C432.698 56.2129 425.644 44.6878 410.361 44.6878C394.783 44.6878 387.729 56.2129 387.729 71.2519Z" fill="#F4F4F4"/>
<path d="M496.185 109.06C484.428 109.06 477.227 104 473.112 98.2376H472.818V131.97H458.417V35.4114H472.818V43.8445H473.112C477.227 38.7846 484.428 33.3032 496.185 33.3032C515.289 33.3032 529.838 47.6393 529.838 71.2519C529.838 94.8644 515.289 109.06 496.185 109.06ZM472.965 71.2519C472.965 87.4152 480.901 97.6754 493.833 97.6754C507.941 97.6754 514.701 85.3069 514.701 71.2519C514.701 57.1968 507.941 44.8283 493.833 44.8283C480.901 44.8283 472.965 54.948 472.965 71.2519Z" fill="#F4F4F4"/>
<path d="M573.295 109.06C550.517 109.06 539.201 97.8159 538.76 83.1987H553.309C553.897 91.4912 559.187 97.9565 573.148 97.9565C585.787 97.9565 589.167 92.6156 589.167 87.4152C589.167 78.4199 579.174 77.4361 569.474 75.4684C556.395 72.5168 541.405 68.8625 541.405 53.9641C541.405 41.5957 551.839 33.3032 569.915 33.3032C590.489 33.3032 600.335 43.8445 601.364 56.2129H586.815C585.787 50.7315 582.701 44.4067 570.209 44.4067C560.51 44.4067 556.395 48.061 556.395 53.4019C556.395 60.8511 564.772 61.5539 575.353 63.8027C589.167 66.8948 604.156 70.6897 604.156 86.7124C604.156 100.627 592.988 109.06 573.295 109.06Z" fill="#F4F4F4"/>
<path d="M648.432 109.201C626.094 109.201 611.545 93.74 611.545 71.2519C611.545 48.7637 626.094 33.3032 648.285 33.3032C667.536 33.3032 680.322 45.25 682.085 61.4133H667.242C666.508 53.9641 662.099 44.6878 648.432 44.6878C632.413 44.6878 626.535 57.759 626.535 71.2519C626.535 84.7447 632.413 97.6754 648.432 97.6754C662.246 97.6754 666.508 88.6801 667.242 80.5282H682.085C681.056 96.9726 667.683 109.201 648.432 109.201Z" fill="#F4F4F4"/>
<path d="M714.306 109.06C699.316 109.06 689.764 100.768 689.764 88.5396C689.764 72.5168 702.402 67.7381 721.066 64.3649C732.822 62.2566 740.023 60.8511 740.023 53.8236C740.023 48.6232 736.79 44.2661 725.768 44.2661C712.689 44.2661 708.721 48.2015 707.986 57.759H693.291C694.025 43.985 703.431 33.1626 726.356 33.1626C741.787 33.1626 754.131 39.3469 754.131 57.8995V90.7884C754.131 95.9888 754.866 98.6592 757.658 98.6592C758.099 98.6592 758.54 98.6592 759.421 98.5187V106.952C756.923 107.514 754.425 107.795 752.074 107.795C744.873 107.795 741.052 105.125 740.17 96.9726H739.876C735.027 104.422 726.503 109.06 714.306 109.06ZM704.753 87.5557C704.753 94.3022 708.574 97.9565 717.539 97.9565C730.471 97.9565 740.023 91.6317 740.023 79.1227V68.8625C737.672 70.9708 731.206 72.5168 723.564 74.0629C710.338 76.5928 704.753 80.1066 704.753 87.5557Z" fill="#F4F4F4"/>
<path d="M771.656 107.092V13.197H786.058V107.092H771.656Z" fill="#F4F4F4"/>
<path d="M835.436 109.201C811.629 109.201 798.403 93.0372 798.403 71.1113C798.403 48.6232 812.511 33.1626 835.436 33.1626C858.215 33.1626 871 47.4988 871 69.7058C871 71.6735 871 73.7818 870.853 74.9062H813.246C813.54 86.853 820.888 97.9565 835.73 97.9565C848.956 97.9565 854.1 89.8046 855.423 85.0258H870.118C866.15 98.7998 855.129 109.201 835.436 109.201ZM813.246 64.0838H856.01C856.01 52.8397 847.781 44.4067 834.996 44.4067C822.945 44.4067 814.128 52.2775 813.246 64.0838Z" fill="#F4F4F4"/>
<path d="M23.9098 91.1542L39.0258 70.7699C40.0048 69.4504 42.0803 69.9991 42.2979 71.6321C46.9101 106.23 93.929 118.615 114.819 89.6039L162.669 25.0763C163.4 24.0921 164.962 24.606 164.962 25.834V63.6065C164.962 65.1741 164.457 66.7026 163.522 67.9611L136.727 104.031C108.688 144.347 46.153 140.123 23.4311 97.2246C22.4042 95.2824 22.6001 92.9222 23.9098 91.1542Z" fill="#F4F4F4"/>
<path d="M140.487 40.8489L125.284 61.3464C124.305 62.6659 122.233 62.1172 122.012 60.4885C117.36 26.0169 70.5936 13.6147 49.6296 42.4035L22.7306 78.617L2.29743 106.439C1.57078 107.432 0 106.914 0 105.686V67.6824C0 66.1147 0.504737 64.5906 1.43589 63.3321L26.0462 30.1495C52.6145 -12.5264 118.23 -8.92942 140.983 34.809C141.992 36.7468 141.788 39.094 140.487 40.8489Z" fill="#F4F4F4"/>

</svg>
