<svg width="50" height="50" viewBox="0 0 50 50" fill="none" xmlns="http://www.w3.org/2000/svg">
<path fill-rule="evenodd" clip-rule="evenodd" d="M5 0C2.23858 0 0 2.23858 0 5V45C0 47.7614 2.23858 50 5 50H45C47.7614 50 50 47.7614 50 45V5C50 2.23858 47.7614 0 45 0H5ZM10.3297 10H39.6703C39.8524 10 40 10.1476 40 10.3297V16.2637C40 16.4458 39.8524 16.5934 39.6703 16.5934H10.3297C10.1476 16.5934 10 16.4458 10 16.2637V10.3297C10 10.1476 10.1476 10 10.3297 10ZM40 40L25 19.8901L10 40H18.2377L25 30.9341L31.7623 40H40Z" fill="white" fill-opacity="0.95"/>
</svg>
