<svg width="1210" height="533" viewBox="0 0 1210 533" fill="none" xmlns="http://www.w3.org/2000/svg">
<path d="M530.034 349.817L508.562 378.896C507.241 380.691 504.446 379.95 504.135 377.726C497.942 332.479 436.63 316.35 409.371 354.361L373.881 402.378L348.273 437.055C346.856 438.966 343.827 437.972 343.827 435.573V386.795C343.827 385.82 344.138 384.864 344.72 384.084L373.881 344.668L380.735 335.404C418.011 281.614 501.922 288.265 530.306 347.262C530.695 348.081 530.597 349.076 530.054 349.798L530.034 349.817Z" fill="#4654FF" fill-opacity="0.1"/>
<path d="M373.978 420.789L395.548 391.593C396.868 389.799 399.664 390.54 399.975 392.763C406.207 437.835 467.208 454.003 494.564 416.284L529.724 368.774L554.982 334.253C556.4 332.322 559.428 333.337 559.428 335.716V384.786C559.428 385.761 559.118 386.717 558.535 387.497L529.724 426.504L525.453 432.296C525.453 432.296 525.394 432.394 525.355 432.433C490.021 489.284 402.013 483.434 373.726 423.325C373.338 422.505 373.454 421.53 373.978 420.809V420.789Z" fill="#4654FF" fill-opacity="0.2"/>
<path d="M756.682 290.351L735.21 319.431C733.889 321.225 731.094 320.484 730.783 318.261C724.59 273.013 663.278 256.884 636.019 294.896L600.529 342.913L574.921 377.589C573.504 379.501 570.475 378.506 570.475 376.107V327.33C570.475 326.354 570.786 325.399 571.368 324.619L600.529 285.203L607.383 275.939C644.64 222.149 728.57 228.799 756.935 287.816C757.323 288.635 757.226 289.63 756.682 290.351Z" fill="#4654FF" fill-opacity="0.3"/>
<path d="M600.626 361.324L622.196 332.128C623.516 330.333 626.312 331.075 626.623 333.298C632.855 378.37 693.856 394.538 721.212 356.819L756.372 309.309L781.65 274.769C783.067 272.838 786.096 273.852 786.096 276.231V325.302C786.096 326.277 785.785 327.232 785.203 328.013L756.391 367.019L752.12 372.811C752.12 372.811 752.062 372.909 752.023 372.948C716.688 429.8 628.681 423.949 600.393 363.84C600.005 363.021 600.121 362.046 600.646 361.324H600.626Z" fill="#4654FF" fill-opacity="0.3"/>
<path d="M303.386 410.882L281.913 439.961C280.593 441.755 277.797 441.014 277.487 438.791C271.293 393.543 209.982 377.414 182.723 415.426L147.233 463.443L121.625 498.12C120.207 500.031 117.179 499.036 117.179 496.637V447.86C117.179 446.885 117.489 445.929 118.072 445.149L147.233 405.733L154.086 396.469C191.363 342.679 275.273 349.329 303.658 408.327C304.046 409.146 303.949 410.141 303.406 410.862L303.386 410.882Z" fill="#4654FF" fill-opacity="0.05"/>
<path d="M147.33 481.854L168.9 452.658C170.22 450.863 173.016 451.604 173.326 453.828C179.559 498.9 240.56 515.068 267.915 477.349L303.076 429.839L328.334 395.318C329.751 393.387 332.78 394.401 332.78 396.781V445.851C332.78 446.826 332.47 447.782 331.887 448.562L303.076 487.568L298.804 493.361C298.804 493.361 298.746 493.458 298.707 493.497C263.372 550.349 175.365 544.498 147.078 484.389C146.689 483.57 146.806 482.595 147.33 481.873V481.854Z" fill="#4654FF" fill-opacity="0.05"/>
<path d="M983.197 229.29L961.724 258.369C960.404 260.163 957.608 259.422 957.297 257.199C951.104 211.951 889.792 195.822 862.534 233.834L827.043 281.851L801.435 316.528C800.018 318.439 796.989 317.444 796.989 315.045V266.268C796.989 265.293 797.3 264.337 797.882 263.557L827.043 224.141L833.897 214.877C871.154 161.087 955.084 167.737 983.449 226.754C983.837 227.573 983.74 228.568 983.197 229.29Z" fill="#4654FF" fill-opacity="0.2"/>
<path d="M827.14 300.262L848.71 271.066C850.031 269.271 852.826 270.013 853.137 272.236C859.369 317.308 920.37 333.476 947.726 295.757L982.886 248.247L1008.16 213.707C1009.58 211.776 1012.61 212.79 1012.61 215.169V264.24C1012.61 265.215 1012.3 266.17 1011.72 266.95L982.905 305.957L978.634 311.749C978.634 311.749 978.576 311.847 978.537 311.886C943.202 368.738 855.195 362.887 826.908 302.778C826.519 301.959 826.636 300.984 827.16 300.262H827.14Z" fill="#4654FF" fill-opacity="0.1"/>
<path d="M1209.51 168.227L1188.04 197.307C1186.72 199.101 1183.92 198.36 1183.61 196.137C1177.42 150.889 1116.11 134.76 1088.85 172.772L1053.36 220.789L1027.75 255.465C1026.33 257.377 1023.3 256.382 1023.3 253.983V205.206C1023.3 204.23 1023.62 203.275 1024.2 202.495L1053.36 163.079L1060.21 153.815C1097.47 100.025 1181.4 106.675 1209.76 165.692C1210.15 166.511 1210.06 167.506 1209.51 168.227Z" fill="#4654FF" fill-opacity="0.05"/>
<path d="M383.187 232.668L361.714 261.748C360.394 263.542 357.598 262.801 357.287 260.578C351.094 215.33 289.782 199.201 262.524 237.213L227.034 285.23L201.425 319.906C200.008 321.818 196.979 320.823 196.979 318.424V269.647C196.979 268.671 197.29 267.716 197.873 266.936L227.034 227.52L233.887 218.256C271.163 164.466 355.074 171.116 383.459 230.114C383.847 230.933 383.75 231.927 383.206 232.649L383.187 232.668Z" fill="#4654FF" fill-opacity="0.1"/>
<path d="M227.131 303.641L248.7 274.444C250.021 272.65 252.816 273.391 253.127 275.615C259.359 320.687 320.361 336.855 347.716 299.135L382.876 251.626L408.135 217.105C409.552 215.174 412.581 216.188 412.581 218.568V267.638C412.581 268.613 412.27 269.569 411.688 270.349L382.876 309.355L378.605 315.148C378.605 315.148 378.547 315.245 378.508 315.284C343.173 372.136 255.166 366.285 226.878 306.176C226.49 305.357 226.606 304.382 227.131 303.66V303.641Z" fill="#4654FF" fill-opacity="0.2"/>
<path d="M609.835 173.203L588.362 202.282C587.042 204.077 584.246 203.335 583.935 201.112C577.742 155.865 516.43 139.735 489.172 177.747L453.681 225.764L428.073 260.441C426.656 262.352 423.627 261.358 423.627 258.959V210.181C423.627 209.206 423.938 208.25 424.52 207.47L453.681 168.054L460.535 158.79C497.792 105 581.722 111.651 610.087 170.668C610.475 171.487 610.378 172.481 609.835 173.203Z" fill="#4654FF" fill-opacity="0.3"/>
<path d="M453.779 244.176L475.348 214.979C476.669 213.185 479.464 213.926 479.775 216.149C486.007 261.221 547.008 277.39 574.364 239.67L609.524 192.16L634.802 157.62C636.219 155.689 639.248 156.704 639.248 159.083V208.153C639.248 209.128 638.937 210.084 638.355 210.864L609.543 249.871L605.272 255.663C605.272 255.663 605.214 255.76 605.175 255.8C569.84 312.651 481.833 306.8 453.546 246.692C453.157 245.872 453.274 244.897 453.798 244.176H453.779Z" fill="#4654FF" fill-opacity="0.3"/>
<path d="M0.482325 364.705L22.0522 335.509C23.3724 333.715 26.1681 334.456 26.4788 336.679C32.7109 381.751 93.7122 397.919 121.068 360.2L156.228 312.69L181.487 278.169C182.904 276.239 185.932 277.253 185.932 279.632V328.702C185.932 329.677 185.622 330.633 185.039 331.413L156.228 370.42L151.957 376.212C151.957 376.212 151.898 376.31 151.86 376.349C116.525 433.2 28.5173 427.35 0.229923 367.241C-0.158373 366.421 -0.0418749 365.446 0.482325 364.725V364.705Z" fill="#4654FF" fill-opacity="0.05"/>
<path d="M836.349 112.141L814.876 141.22C813.556 143.014 810.76 142.273 810.449 140.05C804.256 94.8024 742.944 78.6732 715.686 116.685L680.196 164.702L654.587 199.379C653.17 201.29 650.141 200.295 650.141 197.896V149.119C650.141 148.144 650.452 147.188 651.035 146.408L680.196 106.992L687.049 97.7279C724.306 43.938 808.236 50.5885 836.601 109.605C836.99 110.424 836.892 111.419 836.349 112.141Z" fill="#4654FF" fill-opacity="0.2"/>
<path d="M680.293 183.113L701.863 153.917C703.183 152.122 705.978 152.864 706.289 155.087C712.521 200.159 773.523 216.327 800.878 178.608L836.038 131.098L861.316 96.5578C862.734 94.6269 865.762 95.6411 865.762 98.0205V147.091C865.762 148.066 865.452 149.021 864.869 149.802L836.058 188.808L831.786 194.6C831.786 194.6 831.728 194.698 831.689 194.737C796.354 251.589 708.347 245.738 680.06 185.629C679.671 184.81 679.788 183.835 680.312 183.113H680.293Z" fill="#4654FF" fill-opacity="0.1"/>
<path d="M1062.66 51.0787L1041.19 80.158C1039.87 81.9523 1037.08 81.2112 1036.77 78.9878C1030.57 33.7404 969.26 17.6112 942.001 55.623L906.511 103.64L880.903 138.317C879.486 140.228 876.457 139.233 876.457 136.834V88.0568C876.457 87.0817 876.768 86.126 877.35 85.3459L906.511 45.9299L913.365 36.6658C950.622 -17.1241 1034.55 -10.4735 1062.92 48.5433C1063.31 49.3624 1063.21 50.3571 1062.66 51.0787Z" fill="#4654FF" fill-opacity="0.05"/>
<path d="M906.608 122.051L928.178 92.8547C929.498 91.0604 932.294 91.8016 932.605 94.0249C938.837 139.097 999.838 155.265 1027.19 117.546L1062.35 70.036L1087.63 35.4957C1089.05 33.5649 1092.08 34.5791 1092.08 36.9585V86.0286C1092.08 87.0038 1091.77 87.9594 1091.18 88.7396L1062.37 127.746L1058.1 133.538C1058.1 133.538 1058.04 133.636 1058 133.675C1022.67 190.527 934.663 184.676 906.375 124.567C905.987 123.748 906.103 122.773 906.628 122.051H906.608Z" fill="#4654FF" fill-opacity="0.05"/>
</svg>
