<svg width="10" height="19" viewBox="0 0 10 19" fill="none" xmlns="http://www.w3.org/2000/svg">
<path d="M7.8232 9.25L0.290447 1.71725C0.0917802 1.51858 -0.00497022 1.28208 0.000196442 1.00775C0.00536311 0.733417 0.10728 0.496833 0.305947 0.298C0.504613 0.0993329 0.741114 0 1.01545 0C1.28978 0 1.52636 0.0993329 1.7252 0.298L9.38095 7.96925C9.56161 8.15008 9.69553 8.35267 9.7827 8.577C9.87003 8.80133 9.9137 9.02567 9.9137 9.25C9.9137 9.47433 9.87003 9.69867 9.7827 9.923C9.69553 10.1473 9.56161 10.3499 9.38095 10.5308L1.7097 18.202C1.51103 18.4007 1.27711 18.4974 1.00795 18.4923C0.738613 18.4871 0.504613 18.3852 0.305947 18.1865C0.10728 17.9878 0.00794638 17.7513 0.00794638 17.477C0.00794638 17.2027 0.10728 16.9661 0.305947 16.7673L7.8232 9.25Z" fill="white" fill-opacity="0.6"/>
</svg>
